<?xml version="1.0" standalone="no"?>
<!DOCTYPE svg PUBLIC "-//W3C//DTD SVG 20010904//EN"
 "http://www.w3.org/TR/2001/REC-SVG-20010904/DTD/svg10.dtd">
<svg version="1.0" xmlns="http://www.w3.org/2000/svg"
 width="250.000000pt" height="250.000000pt" viewBox="0 0 250.000000 250.000000"
 preserveAspectRatio="xMidYMid meet">
<metadata>
Created by potrace 1.14, written by Peter Selinger 2001-2017
</metadata>
<g transform="translate(0.000000,250.000000) scale(0.100000,-0.100000)"
fill="#000000" stroke="none">
<path d="M1163 2179 c-13 -5 -23 -6 -23 -2 0 3 -6 0 -13 -6 -8 -6 -17 -8 -20
-5 -3 4 -21 -3 -40 -15 -19 -11 -37 -18 -40 -14 -4 3 -7 1 -7 -5 0 -6 -14 -19
-30 -27 -18 -9 -28 -20 -24 -27 5 -7 2 -9 -7 -6 -9 4 -27 -13 -49 -46 -19 -28
-37 -53 -40 -56 -3 -3 -5 -12 -5 -20 0 -8 -3 -18 -8 -21 -9 -6 -20 -57 -21
-96 -1 -26 -6 -28 -25 -10 -11 10 -12 9 -5 -3 4 -8 8 -26 7 -40 l-2 -25 8 25
c7 23 8 23 12 -12 3 -24 1 -35 -6 -31 -5 3 -5 0 2 -7 10 -11 9 -16 -5 -27 -13
-11 -13 -13 -2 -10 13 4 15 -12 15 -102 0 -85 -3 -107 -15 -113 -13 -6 -13 -7
1 -7 13 -1 16 -14 14 -76 -1 -43 3 -75 9 -75 5 0 6 -3 3 -6 -3 -4 -2 -15 4
-25 8 -15 6 -19 -8 -19 -14 -1 -13 -4 7 -15 14 -8 21 -14 16 -15 -5 0 -2 -7 5
-17 8 -9 13 -19 11 -22 -1 -3 4 -13 12 -23 8 -9 12 -19 9 -22 -4 -3 0 -6 7 -6
7 0 10 -3 7 -7 -4 -3 2 -12 13 -20 11 -8 20 -21 20 -30 0 -9 3 -13 7 -10 3 4
19 -7 35 -23 15 -16 30 -30 33 -30 3 0 10 0 15 0 6 0 10 -6 10 -14 0 -8 7 -17
16 -20 14 -6 15 -4 4 9 -12 14 -11 15 13 4 15 -7 27 -16 27 -21 0 -5 5 -6 11
-3 6 4 20 -3 32 -16 18 -19 19 -22 3 -16 -10 4 -20 7 -22 7 -3 0 -2 5 2 12 5
7 3 8 -6 3 -10 -6 -10 -11 3 -20 10 -7 17 -18 17 -26 0 -11 2 -11 8 -1 5 7 9
-12 9 -47 0 -33 -3 -58 -7 -56 -4 2 -7 -2 -7 -10 0 -8 4 -12 7 -10 4 3 8 -14
8 -37 1 -24 -5 -46 -11 -50 -9 -6 -9 -8 1 -8 6 0 12 -7 12 -16 0 -8 -4 -12
-10 -9 -5 3 -10 1 -10 -4 0 -6 4 -11 8 -11 5 0 8 -24 8 -52 -1 -45 -4 -53 -21
-54 -11 0 -28 -4 -37 -8 -9 -4 -23 -9 -31 -10 -8 -1 -21 -7 -29 -14 -8 -6 -25
-9 -39 -6 -17 4 -20 3 -10 -4 9 -7 10 -12 2 -16 -6 -4 -11 -4 -11 1 0 4 -7 -2
-15 -14 -10 -14 -21 -20 -32 -16 -12 5 -14 3 -8 -7 6 -10 4 -12 -9 -7 -9 4
-15 3 -12 -2 5 -8 -5 -22 -46 -71 -7 -8 -13 -18 -13 -22 0 -4 -8 -16 -17 -27
-9 -11 -14 -22 -11 -25 4 -3 1 -6 -6 -6 -7 0 -10 -10 -7 -25 3 -14 0 -25 -5
-25 -6 0 -8 -4 -4 -9 3 -5 1 -12 -5 -16 -13 -8 -13 -25 1 -25 5 0 8 4 4 9 -3
6 6 6 25 1 21 -6 30 -5 30 3 0 8 3 8 8 2 8 -12 32 -13 50 -2 7 5 12 3 12 -3 0
-6 5 -8 12 -4 7 5 9 2 6 -7 -4 -10 1 -15 16 -16 11 0 15 1 9 4 -7 3 -13 9 -13
15 0 6 6 8 14 5 7 -3 19 0 25 6 8 8 11 8 11 -2 0 -7 5 -9 12 -5 8 5 9 2 4 -11
-6 -17 -5 -18 11 -3 21 18 61 29 68 19 5 -9 67 -7 82 2 5 3 15 2 23 -3 9 -5
19 -5 27 2 9 7 13 7 13 -1 0 -7 5 -9 12 -5 7 5 9 2 6 -7 -4 -10 1 -15 16 -16
11 0 15 1 9 4 -7 3 -13 9 -13 15 0 6 6 8 14 5 7 -3 19 0 25 6 8 8 11 8 11 -2
0 -7 5 -9 12 -5 8 5 9 2 4 -11 -6 -17 -5 -18 11 -3 21 18 61 29 68 19 5 -9 67
-7 82 2 5 3 15 2 23 -3 9 -5 19 -5 27 2 9 7 13 7 13 -1 0 -7 5 -9 12 -5 7 5 9
2 6 -7 -4 -10 1 -15 16 -16 11 0 15 1 9 4 -25 9 -13 23 17 19 16 -2 32 2 35 8
3 6 3 1 1 -12 -4 -19 -2 -21 10 -11 8 6 12 21 9 33 -12 60 -15 70 -22 75 -13
9 -15 41 -3 41 5 0 10 5 10 12 0 9 -3 9 -12 0 -18 -18 -28 -14 -28 11 0 18 2
19 11 7 9 -13 10 -13 6 0 -2 8 -9 14 -15 13 -5 -1 -30 18 -56 42 -31 31 -44
50 -40 62 5 15 4 16 -5 3 -9 -13 -12 -13 -20 -1 -5 7 -13 11 -19 7 -6 -3 -14
-2 -17 4 -4 6 -24 18 -46 27 -21 8 -39 19 -39 24 0 5 -5 9 -11 9 -5 0 -7 -6
-3 -12 6 -10 5 -10 -8 -1 -8 7 -17 11 -19 8 -3 -2 -5 14 -5 36 0 32 3 39 15
34 14 -4 14 -4 0 7 -21 17 -27 178 -7 178 10 0 10 2 1 8 -14 9 -14 120 0 129
5 3 3 10 -4 15 -12 8 -12 9 0 6 8 -2 15 -12 17 -22 4 -30 13 -31 11 -1 -2 24
5 32 42 52 24 12 50 23 58 23 8 0 11 4 8 10 -4 6 1 7 11 3 10 -3 15 -2 12 3
-3 5 4 18 15 29 11 11 17 14 13 8 -4 -7 -5 -13 -1 -13 3 0 10 12 15 26 7 18
15 24 26 20 8 -3 12 -2 9 4 -3 5 -1 19 5 31 11 20 12 20 26 2 14 -17 14 -16 4
5 -8 17 -8 27 -1 36 6 7 7 17 3 21 -4 5 -1 4 7 0 11 -6 13 -4 8 9 -4 11 -3 15
4 11 6 -4 10 -1 8 6 -3 29 1 40 14 33 7 -5 6 -1 -3 10 -13 17 -12 21 15 43 18
15 22 21 9 14 -19 -9 -21 -8 -19 22 2 40 14 69 26 61 5 -3 4 6 -3 20 -6 14
-14 26 -17 26 -4 0 -7 16 -8 35 0 23 3 33 11 28 8 -5 8 -3 0 8 -7 8 -11 46
-11 85 1 61 3 71 16 67 14 -4 14 -3 1 9 -11 9 -15 32 -15 78 1 36 -4 84 -11
107 -7 22 -10 44 -7 47 4 3 2 6 -3 6 -6 0 -15 15 -22 33 -11 32 -100 137 -116
137 -4 0 -20 9 -36 20 -15 11 -30 17 -34 13 -3 -3 -6 -1 -6 5 0 7 -3 11 -7 11
-5 -1 -11 0 -15 1 -5 1 -12 4 -18 5 -5 1 -11 3 -12 5 -21 16 -178 23 -178 7 0
-9 -2 -9 -8 -1 -4 7 -15 8 -29 3z m2 -278 c3 -5 2 -12 -3 -15 -5 -3 -9 1 -9 9
0 17 3 19 12 6z m506 -478 c-9 -16 -10 -15 -9 9 2 16 6 24 11 19 5 -5 5 -17
-2 -28z"/>
<path d="M1673 1813 c0 -9 4 -10 14 -2 7 6 13 12 13 14 0 1 -6 2 -13 2 -8 0
-14 -6 -14 -14z"/>
<path d="M1677 1767 c-3 -8 1 -14 8 -14 7 0 11 6 8 14 -3 7 -6 13 -8 13 -2 0
-5 -6 -8 -13z"/>
<path d="M797 1649 c7 -7 15 -10 18 -7 3 3 -2 9 -12 12 -14 6 -15 5 -6 -5z"/>
<path d="M1670 1640 c0 -5 5 -10 10 -10 6 0 10 5 10 10 0 6 -4 10 -10 10 -5 0
-10 -4 -10 -10z"/>
<path d="M1670 1571 c0 -10 19 -25 25 -20 1 2 -3 10 -11 17 -8 7 -14 8 -14 3z"/>
<path d="M796 1542 c-3 -5 1 -9 9 -9 8 0 12 4 9 9 -3 4 -7 8 -9 8 -2 0 -6 -4
-9 -8z"/>
<path d="M801 1513 c-1 -17 16 -25 25 -12 4 7 3 9 -4 5 -5 -3 -13 0 -15 6 -4
9 -6 10 -6 1z"/>
<path d="M1675 1511 c-6 -11 13 -26 22 -17 4 3 1 6 -6 6 -7 0 -9 5 -6 10 3 6
4 10 1 10 -3 0 -7 -4 -11 -9z"/>
<path d="M800 1451 c0 -6 4 -13 10 -16 6 -3 7 1 4 9 -7 18 -14 21 -14 7z"/>
<path d="M813 1379 c-2 -23 3 -25 10 -4 4 8 3 16 -1 19 -4 3 -9 -4 -9 -15z"/>
<path d="M1676 1375 c4 -8 8 -15 10 -15 2 0 4 7 4 15 0 8 -4 15 -10 15 -5 0
-7 -7 -4 -15z"/>
<path d="M816 1305 c4 -8 11 -15 16 -15 6 0 5 6 -2 15 -7 8 -14 15 -16 15 -2
0 -1 -7 2 -15z"/>
<path d="M1670 1299 c0 -5 5 -7 10 -4 6 3 10 8 10 11 0 2 -4 4 -10 4 -5 0 -10
-5 -10 -11z"/>
<path d="M1635 1189 c-4 -6 -5 -12 -2 -15 2 -3 7 2 10 11 7 17 1 20 -8 4z"/>
<path d="M875 1160 c-3 -5 -1 -10 4 -10 6 0 11 5 11 10 0 6 -2 10 -4 10 -3 0
-8 -4 -11 -10z"/>
<path d="M890 1120 c0 -5 5 -10 11 -10 5 0 7 5 4 10 -3 6 -8 10 -11 10 -2 0
-4 -4 -4 -10z"/>
<path d="M973 1045 c0 -8 4 -12 9 -9 5 3 6 10 3 15 -9 13 -12 11 -12 -6z"/>
<path d="M1395 980 c-3 -5 -1 -10 4 -10 6 0 11 5 11 10 0 6 -2 10 -4 10 -3 0
-8 -4 -11 -10z"/>
<path d="M1134 851 c0 -11 4 -17 8 -15 4 3 8 12 8 20 0 8 -4 14 -8 14 -4 0 -8
-9 -8 -19z"/>
<path d="M1350 856 c0 -2 8 -10 18 -17 15 -13 16 -12 3 4 -13 16 -21 21 -21
13z"/>
<path d="M1350 801 c0 -6 4 -12 8 -15 5 -3 9 1 9 9 0 8 -4 15 -9 15 -4 0 -8
-4 -8 -9z"/>
<path d="M1130 780 c0 -5 5 -10 10 -10 6 0 10 5 10 10 0 6 -4 10 -10 10 -5 0
-10 -4 -10 -10z"/>
<path d="M1350 760 c0 -5 5 -10 10 -10 6 0 10 5 10 10 0 6 -4 10 -10 10 -5 0
-10 -4 -10 -10z"/>
<path d="M1146 745 c-3 -8 -1 -15 4 -15 6 0 10 7 10 15 0 8 -2 15 -4 15 -2 0
-6 -7 -10 -15z"/>
<path d="M1357 727 c-3 -8 1 -14 8 -14 7 0 11 6 8 14 -3 7 -6 13 -8 13 -2 0
-5 -6 -8 -13z"/>
<path d="M1144 623 c4 -8 2 -13 -6 -13 -10 0 -10 -2 1 -9 16 -10 3 -20 -21
-16 -10 2 -18 0 -18 -5 0 -4 13 -7 28 -7 23 1 28 6 27 24 0 12 -5 26 -9 30 -5
4 -6 2 -2 -4z"/>
<path d="M1357 613 c-6 -13 -3 -33 6 -33 28 0 30 2 14 11 -9 6 -15 14 -12 20
4 5 4 9 1 9 -3 0 -7 -3 -9 -7z"/>
<path d="M1035 560 c-16 -7 -17 -9 -3 -9 9 -1 20 4 23 9 7 11 7 11 -20 0z"/>
<path d="M1070 559 c0 -5 5 -7 10 -4 6 3 10 8 10 11 0 2 -4 4 -10 4 -5 0 -10
-5 -10 -11z"/>
<path d="M1421 556 c2 -2 15 -9 29 -15 24 -11 24 -11 6 3 -16 13 -49 24 -35
12z"/>
<path d="M1470 556 c0 -2 8 -10 18 -17 15 -13 16 -12 3 4 -13 16 -21 21 -21
13z"/>
<path d="M959 518 c-5 -18 -6 -38 -1 -34 7 8 12 36 6 36 -2 0 -4 -1 -5 -2z"/>
<path d="M1580 471 c0 -7 -5 -9 -12 -5 -7 5 -8 3 -3 -5 5 -9 10 -10 18 -2 6 6
8 14 4 18 -4 3 -7 1 -7 -6z"/>
<path d="M1595 449 c-4 -6 -5 -12 -2 -15 2 -3 7 2 10 11 7 17 1 20 -8 4z"/>
<path d="M1610 431 c0 -6 4 -13 10 -16 6 -3 7 1 4 9 -7 18 -14 21 -14 7z"/>
<path d="M866 413 c-6 -14 -5 -15 5 -6 7 7 10 15 7 18 -3 3 -9 -2 -12 -12z"/>
<path d="M839 400 c-1 -5 -2 -16 -3 -22 -1 -7 -8 -19 -16 -26 -13 -11 -12 -12
4 -4 10 5 20 21 22 36 2 24 -4 39 -7 16z"/>
<path d="M1670 330 c0 -5 5 -10 11 -10 5 0 7 5 4 10 -3 6 -8 10 -11 10 -2 0
-4 -4 -4 -10z"/>
<path d="M786 279 c3 -5 0 -18 -6 -29 -6 -11 -8 -20 -6 -20 3 0 12 13 20 28
13 24 13 29 1 29 -8 0 -12 -4 -9 -8z"/>
<path d="M1690 280 c0 -5 5 -10 11 -10 5 0 7 5 4 10 -3 6 -8 10 -11 10 -2 0
-4 -4 -4 -10z"/>
<path d="M773 195 c0 -8 4 -12 9 -9 5 3 6 10 3 15 -9 13 -12 11 -12 -6z"/>
<path d="M815 199 c-4 -6 -5 -12 -2 -15 2 -3 7 2 10 11 7 17 1 20 -8 4z"/>
<path d="M1055 200 c-3 -6 1 -7 9 -4 18 7 21 14 7 14 -6 0 -13 -4 -16 -10z"/>
<path d="M1090 200 c0 -5 5 -10 11 -10 5 0 7 5 4 10 -3 6 -8 10 -11 10 -2 0
-4 -4 -4 -10z"/>
<path d="M1135 199 c-4 -6 -5 -12 -2 -15 2 -3 7 2 10 11 7 17 1 20 -8 4z"/>
<path d="M1375 200 c-3 -6 1 -7 9 -4 18 7 21 14 7 14 -6 0 -13 -4 -16 -10z"/>
<path d="M1410 200 c0 -5 5 -10 11 -10 5 0 7 5 4 10 -3 6 -8 10 -11 10 -2 0
-4 -4 -4 -10z"/>
<path d="M1455 199 c-4 -6 -5 -12 -2 -15 2 -3 7 2 10 11 7 17 1 20 -8 4z"/>
<path d="M1695 201 c-3 -5 0 -13 6 -17 7 -4 9 -3 5 4 -3 6 2 13 11 15 16 4 16
5 1 6 -9 0 -19 -3 -23 -8z"/>
</g>
</svg>
